<svg width="20" height="20" viewBox="0 0 20 20" fill="none" xmlns="http://www.w3.org/2000/svg">
<path d="M18.8929 11.3929L17.7582 10.2582C17.5872 10.0872 17.4449 9.88973 17.3367 9.67342L16.2567 7.5133C16.1304 7.26078 15.7938 7.20616 15.5942 7.4058C15.3818 7.61824 15.0708 7.69881 14.782 7.61627L13.5091 7.25259C13.0257 7.11447 12.5239 7.40424 12.402 7.892C12.3108 8.25661 12.4587 8.63916 12.7715 8.84764L13.3582 9.2388C13.9489 9.63259 14.0316 10.4684 13.5297 10.9703L13.3295 11.1705C13.1185 11.3815 13 11.6676 13 11.966V12.3768C13 12.7846 12.8892 13.1847 12.6794 13.5344L11.3647 15.7254C10.9834 16.3611 10.2964 16.75 9.55516 16.75C8.97241 16.75 8.5 16.2776 8.5 15.6948V14.5233C8.5 13.6033 7.93986 12.7759 7.08563 12.4343L6.43149 12.1726C5.44975 11.7799 4.8739 10.7566 5.04773 9.71362L5.05477 9.67139C5.10117 9.39295 5.19956 9.12573 5.3448 8.88367L5.43421 8.73466C5.92343 7.91928 6.87241 7.49948 7.80483 7.68597L8.98267 7.92153C9.55736 8.03647 10.124 7.69096 10.285 7.12744L10.4935 6.39774C10.6422 5.87721 10.3991 5.32456 9.9149 5.08245L9.25 4.75L9.15901 4.84099C8.73705 5.26295 8.16476 5.5 7.56802 5.5H7.38709C7.13924 5.5 6.90095 5.59905 6.7257 5.7743C6.44222 6.05778 6.00814 6.12907 5.64958 5.94979C5.16433 5.70716 4.98833 5.10278 5.26746 4.63757L6.67936 2.2844C6.82024 2.04961 6.91649 1.79207 6.96453 1.52474M18.8929 11.3929C18.9634 10.9389 19 10.4737 19 10C19 5.02944 14.9706 1 10 1C8.93483 1 7.91287 1.18504 6.96453 1.52474M18.8929 11.3929C18.2234 15.702 14.4968 19 10 19C5.02944 19 1 14.9706 1 10C1 6.09461 3.48749 2.77021 6.96453 1.52474" stroke="white" stroke-linecap="round" stroke-linejoin="round"/>
</svg>
