<svg width="20" height="14" viewBox="0 0 20 14" fill="none" xmlns="http://www.w3.org/2000/svg">
<g clip-path="url(#clip0_44_120)">
<path d="M19.7203 1.12583C19.6017 0.978015 19.4377 0.886719 19.2571 0.886719C19.0765 0.886719 18.9125 0.978015 18.7938 1.12583L10.5329 11.4173L2.27111 1.12583C2.15333 0.98345 1.99281 0.895414 1.81484 0.895414C1.45365 0.895414 1.16052 1.2606 1.16052 1.71056C1.16052 1.93119 1.23119 2.13226 1.34635 2.27899L10.0705 13.1487C10.1892 13.2954 10.3523 13.3867 10.5329 13.3867C10.7135 13.3867 10.8766 13.2954 10.9953 13.1487L19.7203 2.27899C19.8381 2.13118 19.9105 1.92793 19.9105 1.70295C19.9105 1.47797 19.8381 1.27364 19.7203 1.12583Z" fill="black"/>
</g>
<defs>
<clipPath id="clip0_44_120">
<rect width="20" height="13.75" fill="white" transform="translate(0 0.125)"/>
</clipPath>
</defs>
</svg>
